<svg width="292" height="269" fill="none" xmlns="http://www.w3.org/2000/svg"><g clip-path="url(#a)"><path d="M175.68 241.417s-4.505 12.847 1.858 15.435c6.364 2.587 31.782 9.117 49.684-3.522 0 0 .563-15.08-23.437-13.499" fill="#1A1818"/><path d="M175.68 241.417s-4.505 12.847 1.858 15.435c6.364 2.587 31.782 9.117 49.684-3.522 0 0 .563-15.08-23.437-13.499" stroke="#1A1818" stroke-miterlimit="10"/><path d="M148.467 218.136s-18.655 9.764-52.875 9.477c-34.22-.286-51.181-107.636-40.544-133.521 10.637-25.886 13.323-56.907 83.436-48.29 0 0 20.086 4.377 34.175 48.29 14.089 43.913 31.917 40.465 33.927 61.428 2.01 20.964-17.986 53.284-49.745 61.491" fill="#E0E0E0"/><path d="M148.467 218.136s-18.655 9.764-52.875 9.477c-34.22-.286-51.181-107.636-40.544-133.521 10.637-25.886 13.323-56.907 83.436-48.29 0 0 20.086 4.377 34.175 48.29 14.089 43.913 31.917 40.465 33.927 61.428 2.01 20.964-17.986 53.284-49.745 61.491" stroke="#1A1818" stroke-miterlimit="10"/><path d="M126.012 145.266c.253.535 12.501 24.822 32.705 20.103l.524-.129s7.714 74.63 15.237 77.504c7.524 2.875 24.535-2.728 24.535-2.728l-8.846-96.51s-1.887-14.361-15.689-15.699l-13.801-1.356" fill="#4F4F4F"/><path d="M126.012 145.266c.253.535 12.501 24.822 32.705 20.103l.524-.129s7.714 74.63 15.237 77.504c7.524 2.875 24.535-2.728 24.535-2.728l-8.846-96.51s-1.887-14.361-15.689-15.699l-13.801-1.356" stroke="#1A1818" stroke-miterlimit="10"/><path d="M110.473 150.306c.253.529 12.506 24.817 32.705 20.098l.524-.13s7.714 74.636 15.243 77.505c7.529 2.868 24.535-2.728 24.535-2.728l-8.813-96.505s-1.886-14.366-15.688-15.705l-13.836-1.327" fill="#4F4F4F"/><path d="M110.473 150.306c.253.529 12.506 24.817 32.705 20.098l.524-.13s7.714 74.636 15.243 77.505c7.529 2.868 24.535-2.728 24.535-2.728l-8.813-96.505s-1.886-14.366-15.688-15.705l-13.836-1.327" stroke="#1A1818" stroke-miterlimit="10"/><path d="m264.491 129.365-1.796-.287-3.722 118.47 1.734-.129 3.784-118.054Z" fill="#fff" stroke="#1A1818" stroke-miterlimit="10"/><path d="m258.638 247.385-11.352-8.578-.474-116.163 15.897 6.063-4.071 118.678Z" fill="#fff" stroke="#1A1818" stroke-miterlimit="10"/><path d="M291.72 118.004 90.746 144.981l.023 7.942 200.951-26.679v-8.24ZM291.319 118.014l-200.196 26.87-53.028-18.365c-.372-.13-.315-.669-1.126-2.503l186.676-23.624 67.646 17.572s.045.05.028.05Z" fill="#fff" stroke="#1A1818" stroke-miterlimit="10"/><path d="m90.84 145.053-54.328-20.857.202 8.381 54.076 20.407.05-7.931Z" fill="#fff" stroke="#1A1818" stroke-miterlimit="10"/><path d="m130.866 113.239 42.943-6.795s-3.548-49.403-11.6-53.616c-8.053-4.213-32.492-11.874-32.492-11.874h-12.484S91.28 50.336 88.791 53.69c-2.49 3.352-3.26 34.947 0 52.946 3.26 17.999 5.845 20.379 5.845 20.379s16.775.478 31.63-9.956c14.854-10.434 18.785-17.33 21.279-19.816 0 0-10.924-10.721-11.504-13.264-.58-2.542-.287-.815-.287-.815s-24.918 15.429-27.53 18.202" fill="#fff"/><path d="m130.866 113.239 42.943-6.795s-3.548-49.403-11.6-53.616c-8.053-4.213-32.492-11.874-32.492-11.874h-12.484S91.28 50.336 88.791 53.69c-2.49 3.352-3.26 34.947 0 52.946 3.26 17.999 5.845 20.379 5.845 20.379s16.775.478 31.63-9.956c14.854-10.434 18.785-17.33 21.279-19.816 0 0-10.924-10.721-11.504-13.264-.58-2.542-.287-.815-.287-.815s-24.918 15.429-27.53 18.202" stroke="#1A1818" stroke-miterlimit="10"/><path d="m150.748 91.359-3.553 5.861-10.699-12.982 4.944-2.981 9.308 10.102Z" fill="#fff" stroke="#1A1818" stroke-miterlimit="10"/><path d="M123.27 31.398c8.219 0 14.883-7.029 14.883-15.7C138.153 7.029 131.489 0 123.27 0c-8.22 0-14.883 7.029-14.883 15.699s6.663 15.699 14.883 15.699Z" fill="#1A1818"/><path d="M117.233 41.252v.22c.124.99.918 5.197 5.513 8.47 0 0 1.188-1.473 3.559 0 0 0 1.543-1.04 2.764-4.342 0 0-.715-4.561.721-7.97 0 0 14.078-4.36 6.42-23.506 0 0 .636-10.918-8.357-13.213 0 0-.473 3.257-4.893 3.504-4.421.248-6.853-.585-6.853-.585s-6.042.107-5.141 6.896c0 0 6.075 2.622 1.976 11.74l-1.329.033-2.213-2.92s-4.353 1.435-1.334 6.357c3.018 4.922 3.992 1.22 3.992 1.22s1.509 6.497 6.47 8.798l-1.295 5.377" fill="#fff"/><path d="M117.233 41.252v.22c.124.99.918 5.197 5.513 8.47 0 0 1.188-1.473 3.559 0 0 0 1.543-1.04 2.764-4.342 0 0-.715-4.561.721-7.97 0 0 14.078-4.36 6.42-23.506 0 0 .636-10.918-8.357-13.213 0 0-.473 3.257-4.893 3.504-4.421.248-6.853-.585-6.853-.585s-6.042.107-5.141 6.896c0 0 6.075 2.622 1.976 11.74l-1.329.033-2.213-2.92s-4.353 1.435-1.334 6.357c3.018 4.922 3.992 1.22 3.992 1.22s1.509 6.497 6.47 8.798l-1.295 5.377" stroke="#1A1818" stroke-miterlimit="10"/><path d="M117.336 14.89c0-.04.028-.08.04-.113.011-.034-.028.05 0-.051l.079-.169c.145-.296.323-.575.529-.832a3 3 0 0 1 2.449-1.165c.89.078 1.747.373 2.495.861a.355.355 0 0 0 .355-.607c-1.312-.777-2.917-1.305-4.398-.664a4.189 4.189 0 0 0-1.971 1.923c-.11.201-.204.41-.282.625-.14.433.535.619.682.191h.022ZM127.547 12.729c0-.04.028-.073.04-.112.011-.04 0 .056 0-.051l.079-.169a4.52 4.52 0 0 1 .529-.832 2.993 2.993 0 0 1 2.449-1.165c.89.078 1.747.373 2.495.86a.356.356 0 0 0 .459-.138.352.352 0 0 0-.099-.469c-1.317-.776-2.922-1.305-4.403-.663a4.265 4.265 0 0 0-1.971 1.923 4.26 4.26 0 0 0-.282.63c-.14.428.535.613.682.186h.022Z" fill="#1A1818"/><path d="M120.803 22.083a4.226 4.226 0 0 0 4.229-4.224 4.226 4.226 0 0 0-4.229-4.224 4.227 4.227 0 0 0-4.229 4.224 4.227 4.227 0 0 0 4.229 4.224Z" stroke="#1A1818" stroke-width=".5" stroke-miterlimit="10"/><path d="M119.293 17.859s1.267-2.25 3.21-.602l-3.21.602Z" fill="#fff"/><path d="M119.293 17.859s1.267-2.25 3.21-.602" stroke="#1A1818" stroke-miterlimit="10"/><path d="m120.273 17.088.445.563a.378.378 0 0 0 .654-.14l.152-.603-.412.146-.304.045.09.338.169.13" fill="#fff"/><path d="m120.273 17.088.445.563a.378.378 0 0 0 .654-.14l.152-.603-.412.146-.304.045.09.338.169.13" stroke="#1A1818" stroke-miterlimit="10"/><path d="M131.081 20.17a4.226 4.226 0 0 0 4.228-4.224 4.226 4.226 0 0 0-4.228-4.224 4.226 4.226 0 0 0-4.229 4.224 4.226 4.226 0 0 0 4.229 4.224Z" stroke="#1A1818" stroke-width=".5" stroke-miterlimit="10"/><path d="M129.57 15.947s1.273-2.25 3.216-.602l-3.216.601Z" fill="#fff"/><path d="M129.57 15.947s1.273-2.25 3.216-.602" stroke="#1A1818" stroke-miterlimit="10"/><path d="m130.559 15.175.444.563a.372.372 0 0 0 .369.135.369.369 0 0 0 .279-.276l.152-.596-.405.146-.31.045.096.338.163.13" fill="#fff"/><path d="m130.559 15.175.444.563a.372.372 0 0 0 .369.135.369.369 0 0 0 .279-.276l.152-.596-.405.146-.31.045.096.338.163.13" stroke="#1A1818" stroke-miterlimit="10"/><path d="M125.031 17.14a2.256 2.256 0 0 1 1.937-.243" fill="#1A1818"/><path d="M125.031 17.14a2.256 2.256 0 0 1 1.937-.243" stroke="#1A1818" stroke-miterlimit="10"/><path d="m126.421 19.113 1.898 2.61c.544.75 1.107 1.5 1.689 2.25.344.439.946.945 1.053 1.513.049.416-.068.834-.326 1.164a2.782 2.782 0 0 1-3.019 1.125c-.433-.14-.613.563-.185.675a3.38 3.38 0 0 0 3.074-.658c.732-.562 1.38-1.552 1.126-2.531a4.693 4.693 0 0 0-1.075-1.58c-.456-.563-.907-1.182-1.346-1.778l-.884-1.226-1.385-1.907c-.265-.366-.873 0-.609.354l-.011-.011ZM120.298 28.698c.13.269.311.51.535.708.442.477.929.91 1.453 1.294a9.017 9.017 0 0 0 5.513 1.806 10.782 10.782 0 0 0 4.375-1.125c.406-.197.051-.805-.355-.608-2.573 1.226-5.467 1.434-8.024.056a9.277 9.277 0 0 1-2.663-2.143 2.067 2.067 0 0 1-.119-.152c0-.005-.079-.163-.034 0a.355.355 0 0 0-.681.186v-.022Z" fill="#1A1818"/><path d="M108.531 23.242s1.2-2.875 2.568 1.53l-2.568-1.53Z" fill="#fff"/><path d="M108.531 23.242s1.2-2.875 2.568 1.53M112.418 15.249l4.257 1.704" stroke="#1A1818" stroke-miterlimit="10"/><path d="M141.952 98.462c.681 0 1.233-.574 1.233-1.282 0-.708-.552-1.283-1.233-1.283s-1.233.575-1.233 1.283.552 1.282 1.233 1.282ZM142.105 81.571c.107-.287 1.977-7.683 3.379-8.47 1.402-.788 4.46-3.938 4.46-3.938l.805 4.5s10.226-6.356 11.195-8.797c.968-2.442.146-2.301.146-2.301s1.87-1.125 1.763.647a15.482 15.482 0 0 1-1.177 5.867 11.673 11.673 0 0 1-1.988 3.009l3.063-5.389s2.005-1.074.53 4.669a27.437 27.437 0 0 1-1.791 5.028 13.734 13.734 0 0 1-1.982 3.195l3.846-7.543s.721-2.115.901 0a16.163 16.163 0 0 1-.49 3.898 59.328 59.328 0 0 1-.952 3.786l1.453-5.242c.184 1.452.241 2.919.169 4.381-.113 2.588-3.992 6.188-4.64 6.643-.648.456-8.925 5.496-9.629 5.923-.704.428-9.061-9.866-9.061-9.866Z" fill="#fff" stroke="#1A1818" stroke-miterlimit="10"/><path d="m160.754 65.937-8.169 6.507h-.001a1.192 1.192 0 0 1-1.672-.198l-.387.304.387-.304a1.189 1.189 0 0 1-.242-.565v-.001l-1.689-12.285a1.186 1.186 0 0 1 .607-1.184l8.557-4.679h.001a1.19 1.19 0 0 1 1.748.894l1.3 10.458a1.192 1.192 0 0 1-.44 1.053Z" fill="#2CE2A2" stroke="#000"/><path d="M122.051 51.08s-3.447 1.974-2.625 8.51c.823 6.536-3.339-.18-3.339-.18s-4.116-13.719-1.441-16.087" stroke="#1A1818" stroke-miterlimit="10"/><path d="M124.483 55.366c1.344 0 2.433-1.294 2.433-2.89 0-1.598-1.089-2.892-2.433-2.892-1.343 0-2.432 1.294-2.432 2.891s1.089 2.891 2.432 2.891Z" fill="#fff" stroke="#1A1818" stroke-miterlimit="10"/><path d="M127.441 52.896s1.363-.191 3.942 5.411c2.579 5.602 5.558-12.29.839-16.261M124.062 89.857c-4.888-6.227-1.301-33.8-1.301-33.8l.287-1.248" stroke="#1A1818" stroke-miterlimit="10"/><path d="M133.169 83.14c.096-5.934-6.261-27.094-6.261-27.094l-.451-1.339" fill="#fff"/><path d="M133.169 83.14c.096-5.934-6.261-27.094-6.261-27.094l-.451-1.339" stroke="#1A1818" stroke-miterlimit="10"/><path d="M107 76.07c.659 1.722 5.727 21.898 5.727 21.898L107 76.07Z" fill="#fff"/><path d="M107 76.07c.659 1.722 5.727 21.898 5.727 21.898M152.437 91.695s-.074 8.235.596 9.563c0 0-10.778 4.932-14.545 8.307" stroke="#1A1818" stroke-miterlimit="10"/><path d="m220.394 112.507-47.588 8.437a1.323 1.323 0 0 1-1.195-.388 1.333 1.333 0 0 1-.337-1.209l10.035-44.34a1.33 1.33 0 0 1 1.126-1.024l47.639-6.75a1.332 1.332 0 0 1 1.169.419 1.323 1.323 0 0 1 .312 1.201l-10.085 42.642a1.338 1.338 0 0 1-1.076 1.012Z" fill="#1A1818" stroke="#1A1818" stroke-miterlimit="10"/><path d="m171.253 121.091-20.649-8.308-.034-.821 20.711 7.993-.028 1.136ZM171.127 118.931l-19.213-7.526 24.946-1.31-5.175 7.633-.558 1.203Z" fill="#1A1818" stroke="#1A1818" stroke-miterlimit="10"/><path d="m77.192 268.129-11.346-8.572-.479-116.169 15.902 6.063-4.077 118.678Z" fill="#fff" stroke="#1A1818" stroke-miterlimit="10"/><path d="m83.054 150.109-1.802-.287-3.717 118.476 1.734-.135 3.785-118.054Z" fill="#fff" stroke="#1A1818" stroke-miterlimit="10"/><path d="M160.653 248.6s-4.477 12.847 1.858 15.434c6.335 2.588 31.782 9.118 49.683-3.521 0 0 .563-15.08-23.437-13.499" fill="#1A1818"/><path d="M160.653 248.6s-4.477 12.847 1.858 15.434c6.335 2.588 31.782 9.118 49.683-3.521 0 0 .563-15.08-23.437-13.499" stroke="#1A1818" stroke-miterlimit="10"/><path d="M186.816 246.581s18.499-4.674 24.597 9.979l-24.597-9.979Z" fill="#1A1818"/><path d="M186.816 246.581s18.499-4.674 24.597 9.979" stroke="#fff" stroke-miterlimit="10"/><path d="m45.274 253.477-16.82-71.806-8.762-4.877H.282V248.6l8.761 4.877h36.23Z" fill="#fff" stroke="#1A1818" stroke-miterlimit="10"/><path d="m27.877 181.884-22.93.287-3.959-4.815H19.25l8.627 4.528Z" fill="#1A1818"/><path d="m9.045 253.477-4.1-71.306" stroke="#1A1818" stroke-miterlimit="10"/><path d="M12.708 181.237s-4.026-12.205 7.045-29.867c11.07-17.662 4.46-34.874 3.018-38.058-1.442-3.183-3.621-8.763-3.75 0-.13 8.764 1.593 6.75-2.428 18.956-4.02 12.206-8.773 25.992-7.264 33.895a263.588 263.588 0 0 0 3.38 15.074Z" fill="#fff" stroke="#1A1818" stroke-miterlimit="10"/><path d="M1.508 87.016c0 .157 15.874 3.172 12.642 40.802-3.114 36.224-6.972 48.756-2.883 51.653.16.112.329.21.506.292 4.9 2.25-1.126 0-1.126 0s-8.914-14.467-6.61-43.041c2.302-28.574 1.35-38.766-.564-44.233" fill="#fff"/><path d="M1.508 87.016c0 .157 15.874 3.172 12.642 40.802-3.114 36.224-6.972 48.756-2.883 51.653.16.112.329.21.506.292 4.9 2.25-1.126 0-1.126 0s-8.914-14.467-6.61-43.041c2.302-28.574 1.35-38.766-.564-44.233" stroke="#1A1818" stroke-miterlimit="10"/><path d="M97.13 164.053c-1.538 0 10.541-5.839 41.022 8.904l-41.023-8.904Z" fill="#fff"/><path d="M97.13 164.053c-1.538 0 10.541-5.839 41.022 8.904" stroke="#1A1818" stroke-miterlimit="10"/><path d="M83.055 85.356s6.312 23.658 6.504 29.159l-6.504-29.159Z" fill="#fff"/><path d="M83.055 85.356s6.312 23.658 6.504 29.159" stroke="#1A1818" stroke-miterlimit="10"/></g><defs><clipPath id="a"><path fill="#fff" d="M0 0h292v268.681H0z"/></clipPath></defs></svg>